<svg width="2641" height="768" viewBox="0 0 2641 768" fill="none" xmlns="http://www.w3.org/2000/svg">
<g clip-path="url(#clip0_64_2)">
<path d="M342.708 702.49L216.773 486.22H123.768V702.49H0.947998V79.4912H250.148C307.692 79.4912 356.642 99.6692 396.998 140.011C437.34 180.367 457.518 229.011 457.518 285.971C457.518 324.547 446.532 360.285 424.588 393.216C402.644 426.146 373.566 450.912 337.382 467.517L475.318 702.491L342.708 702.49ZM123.768 194.301V378.53H250.148C273.288 378.53 293.16 369.491 309.778 351.385C326.382 333.293 334.698 311.488 334.698 285.97C334.698 260.452 326.382 238.8 309.778 221C293.16 203.2 273.288 194.3 250.148 194.3L123.768 194.301Z" fill="white"/>
<path d="M616.832 527.16C632.254 582.938 674.084 610.82 742.322 610.82C786.224 610.82 819.446 595.996 842.002 566.32L934.562 619.72C890.646 683.215 825.982 714.949 740.542 714.949C666.964 714.949 607.932 692.699 563.432 648.199C518.932 603.699 496.682 547.63 496.682 479.989C496.682 412.947 518.626 357.03 562.542 312.224C606.444 267.432 662.806 245.03 731.642 245.03C796.904 245.03 850.749 267.586 893.177 312.67C935.591 357.768 956.812 413.546 956.812 479.989C956.812 494.827 955.324 510.555 952.362 527.159L616.832 527.16ZM615.052 438.16H842.002C835.466 407.9 821.977 385.358 801.507 370.52C781.037 355.696 757.744 348.27 731.642 348.27C700.784 348.27 675.266 356.141 655.102 371.855C634.924 387.584 621.574 409.68 615.052 438.16Z" fill="white"/>
<path d="M1284.32 245.031C1332.97 245.031 1373.17 261.356 1404.92 293.98C1436.65 326.619 1452.53 371.716 1452.53 429.26V702.489H1337.72V443.5C1337.72 413.838 1329.71 391.143 1313.69 375.415C1297.67 359.7 1276.31 351.83 1249.61 351.83C1219.94 351.83 1196.21 361.035 1178.41 379.42C1160.61 397.817 1151.71 425.407 1151.71 462.19V702.49H1036.9V257.491H1151.71V307.331C1179.6 265.807 1223.8 245.031 1284.32 245.031Z" fill="white"/>
<path d="M1804.97 367.851H1704.4V552.971C1704.4 568.407 1708.25 579.67 1715.97 586.79C1723.67 593.91 1734.95 597.915 1749.79 598.806C1764.62 599.696 1783.01 599.557 1804.97 598.361V702.491C1726.05 711.391 1670.43 703.965 1638.1 680.241C1605.75 656.517 1589.59 614.089 1589.59 552.971V367.851H1512.16V257.492H1589.59V167.601L1704.4 132.891V257.492H1804.97V367.851Z" fill="white"/>
<path d="M2584.1 385.788C2618.76 345.27 2641 291.33 2641 234.145C2641 160.064 2608 89.0002 2545.14 43.7232C2475.75 -6.26173 2377.64 -11.2868 2299.69 19.0742C2271.07 30.2212 2241.96 45.3222 2218.32 65.2492L1871 385.772L2218.32 702.192C2218.32 702.192 2290.41 762.957 2385.63 767.208C2392.04 767.724 2398.52 768 2405.06 768C2535.28 768 2639 659 2640.84 535.266C2641.71 477.441 2619.47 426.493 2584.1 385.788Z" fill="#F16726"/>
<path d="M2529.57 384.468C2575.08 348.462 2605 289.609 2605 229.081C2605 120.789 2512.32 33 2397.98 33C2283.65 33 2190.97 120.788 2190.97 229.081C2190.97 231.973 2191.03 234.851 2191.17 237.712H2278C2278.01 235.784 2278.03 233.825 2278.03 232.948C2278.03 169.001 2332.76 117.162 2400.27 117.162C2467.79 117.162 2522.52 169.001 2522.52 232.948C2522.52 268.833 2505.28 300.904 2478.23 322.142C2464.18 330.792 2448.13 335.359 2431.77 335.359H2342.34V425.359H2425.61C2443.91 425.359 2461.78 431.073 2476.88 441.753L2477.26 442.02C2504.32 463.258 2521.55 495.33 2521.55 531.214C2521.55 595.161 2466.82 647 2399.31 647C2331.79 647 2277.06 595.161 2277.06 531.214C2277.06 530.337 2277.04 528.378 2277.03 526.45H2190.2C2190.07 529.312 2190 532.189 2190 535.081C2190 643.373 2282.68 731.162 2397.02 731.162C2511.35 731.162 2604.03 643.374 2604.03 535.081C2604.03 474.553 2575.07 420.436 2529.57 384.468Z" fill="white"/>
</g>
<defs>
<clipPath id="clip0_64_2">
<rect width="2641" height="768" fill="white"/>
</clipPath>
</defs>
</svg>
